<mxfile host="65bd71144e">
    <diagram id="6VYxvIZx5mkDzqvh9ezb" name="Page-1">
        <mxGraphModel dx="817" dy="561" grid="1" gridSize="10" guides="1" tooltips="1" connect="1" arrows="1" fold="1" page="1" pageScale="1" pageWidth="827" pageHeight="1169" math="0" shadow="0">
            <root>
                <mxCell id="0"/>
                <mxCell id="1" parent="0"/>
                <mxCell id="2" style="edgeStyle=none;html=1;exitX=1;exitY=0.5;exitDx=0;exitDy=0;endArrow=none;endFill=0;fillColor=#f8cecc;strokeColor=#b85450;entryX=0.7;entryY=0;entryDx=0;entryDy=0;entryPerimeter=0;" edge="1" parent="1" source="3" target="13">
                    <mxGeometry relative="1" as="geometry">
                        <mxPoint x="370" y="130" as="targetPoint"/>
                        <Array as="points">
                            <mxPoint x="180" y="130"/>
                        </Array>
                    </mxGeometry>
                </mxCell>
                <mxCell id="3" value="" style="pointerEvents=1;verticalLabelPosition=bottom;shadow=0;dashed=0;align=center;html=1;verticalAlign=top;shape=mxgraph.electrical.miscellaneous.batteryStack;" vertex="1" parent="1">
                    <mxGeometry x="50" y="100" width="100" height="60" as="geometry"/>
                </mxCell>
                <mxCell id="4" value="&lt;font style=&quot;font-size: 18px&quot;&gt;-&lt;/font&gt;" style="text;html=1;resizable=0;autosize=1;align=center;verticalAlign=middle;points=[];fillColor=none;strokeColor=none;rounded=0;fontFamily=Helvetica;fontSize=11;fontColor=default;" vertex="1" parent="1">
                    <mxGeometry x="30" y="100" width="20" height="20" as="geometry"/>
                </mxCell>
                <mxCell id="5" value="&lt;font style=&quot;font-size: 18px&quot;&gt;+&lt;/font&gt;" style="text;html=1;resizable=0;autosize=1;align=center;verticalAlign=middle;points=[];fillColor=none;strokeColor=none;rounded=0;fontFamily=Helvetica;fontSize=11;fontColor=default;" vertex="1" parent="1">
                    <mxGeometry x="140" y="100" width="30" height="20" as="geometry"/>
                </mxCell>
                <mxCell id="6" value="&lt;font style=&quot;font-size: 18px&quot;&gt;5 V&lt;br&gt;&lt;/font&gt;" style="text;html=1;resizable=0;autosize=1;align=center;verticalAlign=middle;points=[];fillColor=none;strokeColor=none;rounded=0;fontFamily=Helvetica;fontSize=11;fontColor=default;" vertex="1" parent="1">
                    <mxGeometry x="80" y="70" width="40" height="20" as="geometry"/>
                </mxCell>
                <mxCell id="7" value="&lt;font style=&quot;font-size: 18px&quot;&gt;220&amp;nbsp;&lt;/font&gt;&lt;span style=&quot;color: rgb(32 , 33 , 36) ; font-family: &amp;#34;arial&amp;#34; , sans-serif ; font-size: 16px ; text-align: left ; background-color: rgb(255 , 255 , 255)&quot;&gt;Ω&lt;/span&gt;" style="text;html=1;resizable=0;autosize=1;align=center;verticalAlign=middle;points=[];fillColor=none;strokeColor=none;rounded=0;fontFamily=Helvetica;fontSize=11;fontColor=default;" vertex="1" parent="1">
                    <mxGeometry x="175" y="430" width="60" height="20" as="geometry"/>
                </mxCell>
                <mxCell id="9" style="edgeStyle=orthogonalEdgeStyle;rounded=0;orthogonalLoop=1;jettySize=auto;html=1;exitX=1;exitY=0.115;exitDx=0;exitDy=0;exitPerimeter=0;endArrow=none;endFill=0;fillColor=#f8cecc;strokeColor=#b85450;" edge="1" parent="1" source="10">
                    <mxGeometry relative="1" as="geometry">
                        <mxPoint x="160" y="130" as="targetPoint"/>
                    </mxGeometry>
                </mxCell>
                <mxCell id="10" value="" style="pointerEvents=1;verticalLabelPosition=bottom;shadow=0;dashed=0;align=center;html=1;verticalAlign=top;shape=mxgraph.electrical.electro-mechanical.2-way_switch;rotation=-180;" vertex="1" parent="1">
                    <mxGeometry x="185" y="167" width="75" height="26" as="geometry"/>
                </mxCell>
                <mxCell id="11" value="Switch&lt;br&gt;" style="text;html=1;resizable=0;autosize=1;align=center;verticalAlign=middle;points=[];fillColor=none;strokeColor=none;rounded=0;" vertex="1" parent="1">
                    <mxGeometry x="197.5" y="147" width="50" height="20" as="geometry"/>
                </mxCell>
                <mxCell id="35" style="html=1;exitX=0.7;exitY=1;exitDx=0;exitDy=0;exitPerimeter=0;endArrow=none;endFill=0;" edge="1" parent="1" source="13">
                    <mxGeometry relative="1" as="geometry">
                        <mxPoint x="490" y="230" as="targetPoint"/>
                    </mxGeometry>
                </mxCell>
                <mxCell id="13" value="" style="verticalLabelPosition=bottom;shadow=0;dashed=0;align=center;html=1;verticalAlign=top;shape=mxgraph.electrical.transistors.npn_transistor_1;rotation=0;flipH=0;" vertex="1" parent="1">
                    <mxGeometry x="371.05" y="130" width="95" height="100" as="geometry"/>
                </mxCell>
                <mxCell id="14" style="edgeStyle=none;html=1;exitX=1;exitY=0.5;exitDx=0;exitDy=0;exitPerimeter=0;entryX=0;entryY=0.5;entryDx=0;entryDy=0;entryPerimeter=0;endArrow=none;endFill=0;startSize=6;" edge="1" parent="1" source="15" target="13">
                    <mxGeometry relative="1" as="geometry"/>
                </mxCell>
                <mxCell id="15" value="" style="pointerEvents=1;verticalLabelPosition=bottom;shadow=0;dashed=0;align=center;html=1;verticalAlign=top;shape=mxgraph.electrical.resistors.resistor_2;" vertex="1" parent="1">
                    <mxGeometry x="260" y="160" width="100" height="20" as="geometry"/>
                </mxCell>
                <mxCell id="16" value="&lt;font style=&quot;font-size: 18px&quot;&gt;4.7 k&lt;/font&gt;&lt;span style=&quot;color: rgb(32 , 33 , 36) ; font-family: &amp;#34;arial&amp;#34; , sans-serif ; font-size: 16px ; text-align: left ; background-color: rgb(255 , 255 , 255)&quot;&gt;Ω&lt;/span&gt;" style="text;html=1;resizable=0;autosize=1;align=center;verticalAlign=middle;points=[];fillColor=none;strokeColor=none;rounded=0;fontFamily=Helvetica;fontSize=11;fontColor=default;" vertex="1" parent="1">
                    <mxGeometry x="275" y="180" width="70" height="20" as="geometry"/>
                </mxCell>
                <mxCell id="17" value="" style="verticalLabelPosition=bottom;shadow=0;dashed=0;align=center;html=1;verticalAlign=top;shape=mxgraph.electrical.opto_electronics.led_2;pointerEvents=1;flipH=1;rotation=0;" vertex="1" parent="1">
                    <mxGeometry x="255" y="375" width="100" height="70" as="geometry"/>
                </mxCell>
                <mxCell id="18" value="Transistor" style="text;html=1;resizable=0;autosize=1;align=center;verticalAlign=middle;points=[];fillColor=none;strokeColor=none;rounded=0;" vertex="1" parent="1">
                    <mxGeometry x="345" y="230" width="70" height="20" as="geometry"/>
                </mxCell>
                <mxCell id="19" value="Output&lt;br style=&quot;font-size: 18px;&quot;&gt;" style="text;html=1;resizable=0;autosize=1;align=center;verticalAlign=middle;points=[];fillColor=none;strokeColor=none;rounded=0;fontSize=18;" vertex="1" parent="1">
                    <mxGeometry x="270" y="469" width="70" height="30" as="geometry"/>
                </mxCell>
                <mxCell id="20" value="Input A" style="text;html=1;resizable=0;autosize=1;align=center;verticalAlign=middle;points=[];fillColor=none;strokeColor=none;rounded=0;fontSize=18;" vertex="1" parent="1">
                    <mxGeometry x="215" y="190" width="70" height="30" as="geometry"/>
                </mxCell>
                <mxCell id="21" value="Emmanuel&amp;nbsp;&lt;br&gt;TEJ3M&lt;br&gt;Unit #4-09" style="text;html=1;resizable=0;autosize=1;align=center;verticalAlign=middle;points=[];fillColor=none;strokeColor=none;rounded=0;fontSize=18;" vertex="1" parent="1">
                    <mxGeometry x="20" width="110" height="70" as="geometry"/>
                </mxCell>
                <mxCell id="23" value="" style="verticalLabelPosition=bottom;shadow=0;dashed=0;align=center;html=1;verticalAlign=top;shape=mxgraph.electrical.transistors.npn_transistor_1;rotation=0;flipH=0;" vertex="1" parent="1">
                    <mxGeometry x="371.05" y="245" width="95" height="100" as="geometry"/>
                </mxCell>
                <mxCell id="24" style="edgeStyle=orthogonalEdgeStyle;rounded=0;orthogonalLoop=1;jettySize=auto;html=1;exitX=1;exitY=0.115;exitDx=0;exitDy=0;exitPerimeter=0;endArrow=none;endFill=0;fillColor=#f8cecc;strokeColor=#b85450;" edge="1" parent="1" source="27">
                    <mxGeometry relative="1" as="geometry">
                        <mxPoint x="162" y="130" as="targetPoint"/>
                        <Array as="points">
                            <mxPoint x="145" y="315"/>
                            <mxPoint x="145" y="130"/>
                        </Array>
                    </mxGeometry>
                </mxCell>
                <mxCell id="25" style="edgeStyle=orthogonalEdgeStyle;rounded=0;orthogonalLoop=1;jettySize=auto;html=1;exitX=1;exitY=0.885;exitDx=0;exitDy=0;exitPerimeter=0;endArrow=none;endFill=0;entryX=1;entryY=0.885;entryDx=0;entryDy=0;entryPerimeter=0;" edge="1" parent="1" source="27" target="10">
                    <mxGeometry relative="1" as="geometry">
                        <mxPoint x="180" y="253" as="targetPoint"/>
                    </mxGeometry>
                </mxCell>
                <mxCell id="26" style="edgeStyle=orthogonalEdgeStyle;rounded=0;orthogonalLoop=1;jettySize=auto;html=1;exitX=1;exitY=0.885;exitDx=0;exitDy=0;exitPerimeter=0;endArrow=none;endFill=0;entryX=0;entryY=0.5;entryDx=0;entryDy=0;entryPerimeter=0;" edge="1" parent="1" source="27" target="32">
                    <mxGeometry relative="1" as="geometry">
                        <mxPoint x="150" y="415" as="targetPoint"/>
                        <Array as="points">
                            <mxPoint x="150" y="295"/>
                            <mxPoint x="150" y="415"/>
                        </Array>
                    </mxGeometry>
                </mxCell>
                <mxCell id="27" value="" style="pointerEvents=1;verticalLabelPosition=bottom;shadow=0;dashed=0;align=center;html=1;verticalAlign=top;shape=mxgraph.electrical.electro-mechanical.2-way_switch;rotation=-180;" vertex="1" parent="1">
                    <mxGeometry x="212.5" y="292" width="75" height="26" as="geometry"/>
                </mxCell>
                <mxCell id="28" value="" style="pointerEvents=1;verticalLabelPosition=bottom;shadow=0;dashed=0;align=center;html=1;verticalAlign=top;shape=mxgraph.electrical.resistors.resistor_2;" vertex="1" parent="1">
                    <mxGeometry x="275" y="285" width="100" height="20" as="geometry"/>
                </mxCell>
                <mxCell id="29" value="&lt;font style=&quot;font-size: 18px&quot;&gt;4.7 k&lt;/font&gt;&lt;span style=&quot;color: rgb(32 , 33 , 36) ; font-family: &amp;#34;arial&amp;#34; , sans-serif ; font-size: 16px ; text-align: left ; background-color: rgb(255 , 255 , 255)&quot;&gt;Ω&lt;/span&gt;" style="text;html=1;resizable=0;autosize=1;align=center;verticalAlign=middle;points=[];fillColor=none;strokeColor=none;rounded=0;fontFamily=Helvetica;fontSize=11;fontColor=default;" vertex="1" parent="1">
                    <mxGeometry x="277.5" y="310" width="70" height="20" as="geometry"/>
                </mxCell>
                <mxCell id="30" style="edgeStyle=orthogonalEdgeStyle;rounded=0;orthogonalLoop=1;jettySize=auto;html=1;entryX=0.7;entryY=1;entryDx=0;entryDy=0;entryPerimeter=0;endArrow=none;endFill=0;" edge="1" parent="1" target="23">
                    <mxGeometry relative="1" as="geometry">
                        <mxPoint x="355" y="415" as="sourcePoint"/>
                    </mxGeometry>
                </mxCell>
                <mxCell id="31" style="edgeStyle=orthogonalEdgeStyle;rounded=0;orthogonalLoop=1;jettySize=auto;html=1;entryX=0;entryY=0.5;entryDx=0;entryDy=0;endArrow=none;endFill=0;" edge="1" parent="1" source="32" target="3">
                    <mxGeometry relative="1" as="geometry"/>
                </mxCell>
                <mxCell id="32" value="" style="pointerEvents=1;verticalLabelPosition=bottom;shadow=0;dashed=0;align=center;html=1;verticalAlign=top;shape=mxgraph.electrical.resistors.resistor_2;" vertex="1" parent="1">
                    <mxGeometry x="155" y="405" width="100" height="20" as="geometry"/>
                </mxCell>
                <mxCell id="33" value="Input B" style="text;html=1;resizable=0;autosize=1;align=center;verticalAlign=middle;points=[];fillColor=none;strokeColor=none;rounded=0;fontSize=18;" vertex="1" parent="1">
                    <mxGeometry x="217.5" y="255" width="70" height="30" as="geometry"/>
                </mxCell>
                <mxCell id="34" value="" style="shape=image;verticalLabelPosition=bottom;labelBackgroundColor=#ffffff;verticalAlign=top;aspect=fixed;imageAspect=0;image=data:image/png,iVBORw0KGgoAAAANSUhEUgAAARMAAAD1CAIAAAD8oYbEAAAgAElEQVR4nO2dV3Ac2XX3b3fPdE/OOSJjEIjEzCUpgkHkcrXL9XqlteRVWVVWWapyqVzym1/87iqV/WBVWXpTSbJUEldaUaK45HKXywRGAETGIA4GGEzOqWem0/dwP+HjxwCRQ4QB9/6eyMFM9+nb93/DufeegwmCABAIxEuCb7cBCMSOBCkHgagGpBwEohqQchCIakDKQSCqASkHgagGpBwEohqQchCIakDKQSCqASkHgagGpBwEohqQchCIahC9+Ff/8Ic/bJ4dCESN093dXV9fv/Zf7MX3Sms0ms0xCYHYAfzoRz/67ne/u/bfl+hzMpnMsWPH3n333U2wCoGoXUZHR3/1q1+Vy+XHP3wJ5QAAent7/+Vf/mVDrUIgap2PPvro/PnzT3yIPAQIRDUg5SAQ1YCUg0BUA1IOAlENSDkIRDUg5SAQ1YCUg0BUA1IOAlENSDkIRDUg5SAQ1fByu282inK5TNM0TdMcxwEACIKgKEqhUIhEIhzHAQA8z3Mcl8/ny+Uyy7KP/xbDMKlUKpVKJRIJhmHPuwXP8yzLFgqFQqGw9qFYLJZIJHK5nCCIdX67BsdxlUqlVCpJJBKKoqBtmwHLsgzDlMtliUQiFosZhmFZVhAEqVSK4zjLspVKhed5mUy2vuWCIFQqlWKx+HS5QSiKgqVHEMQmPcsTwBdB0zRBEDKZDMOw59kvCALHcaVSieM4mUwmEole5B1tF9ujnOnp6Tt37ty+fTsajWIYZjQae3p63nnnHbvdrlQqAQDFYjESiVy4cGF4eDgajfI8v/ZbiqIOHz78xhtvHDp0SCR6rv2lUikQCPzpT3/65JNP1j6sr6/fvXv322+/bTAYKIpa30ie51Op1Ozs7MDAwIEDB/r6+iQSyWZUOJ7nQ6HQ4uLixMTE3r17m5ubZ2dnI5EITdOHDh1Sq9Wrq6tTU1OlUun48eNGo/F5Ty0IAsuys7Oz165dGxkZWVlZeeILGIZ1d3cfOHDgxIkTKpVqa8STy+WCweDt27cNBsOJEyekUqlYLH7mN0ulUjKZfPDgQTQaPXnypN1ul0gkW2BhdWypcniez2QyPp9veno6HA4rlUpYiDKZLJPJfPHFF93d3R6PR6VSsSybz+cXFxcDgYBarZZKpbCicxzHcdzS0pJGo2lsbNTpdFKp9OkbxeNxn883PDy8srKiUqmkUimsbRiGhcPh4eHhjo4Ot9uN4/j6rVq5XI7FYlNTUw0NDc9swjcEDMNEIpFUKtVoNBRFsSybSCQCgUA+n+/p6ZHL5ZlMZmVlJZ/P0zS9/qkQDMNIktRoNGazuVKp0DS9srKSSCTq6+v1er1MJjMYDAqFYvM6z6fBcZwkSbVaDe+7ToFzHAcNXl5ePnDgAByP1CxbqhyWZVdWVs6fP89xnMvl+u53v+t0OgVBCIfDt27d+p//+Z9oNCqVSpubmwEAGIbJZLLdu3d/+OGHbrdbq9UCAEqlUiQS+elPfzo3Nzc3N+fxeJ6pnIWFhRs3bly6dOnkyZM/+MEPLBaLTCYTBOHevXuPHj367LPPAAA2m40kyVoYD2AYZrVarVbr3r17MQxLp9PVWQUV2Nra2tLSAgAoFovhcPiPf/zjgwcPPvzww76+PovFAr+2wQ+wLkqlUqlUNjQ01EJRbyBbqpxEIhGJRFiWbWlp2b9/v06ng6NejUbT2dn5jW98o1gsPnr0yGAwPKGHtcExSZIqlcrpdCYSiWQySdP0E7dgWbZUKnm93kgkcubMmX379plMJoqi4BWcTmcymZyamspkMul0GhpQLBavX78+MjISCAQ4jlMqlbt37+7s7Kyrq/viiy+uXbt29+7dSqWSSqVOnjxpNptZlr1///7IyIjX6+V53mazvf32201NTXq9/nFLstnswsJCMpkUBKG3t1elUpVKpevXr6dSqd7eXofDoVAoIpHI0tKSz+draGggCGJxcdFqtXIc96tf/WphYQFep6urS6FQAAAymcy1a9disdji4qLD4ejp6Tl27JhMJnt68APLaq3QsMcAfxkJj4+Pz8zM0DQtl8stFsuBAwdUKtXS0tLt27fHx8cBAAqFwmw2Hz9+vK2tTa1WT0xMLC4uMgwTjUaDwWAymVSpVB6PZ//+/c3NzQRBzM3NjYyMDA0NxWIxAEBfX19fX19vby/HcZFIZHh4WKvVHjhwQCQSRaPRe/fuTU1NLS8vAwDa29uPHDnidDpjsdgnn3xy+/btSCQCADh+/PiRI0fK5TIcf0ajUY7j7Hb7/v37Dxw4IJFI4IOMjIwsLi7SNK1Wqx0Ox4EDBywWyzrD+I1iS5UTjUZhr+J2uz0ez9rjyWQyh8Nx8ODBmzdvzs7O7tmz53lDcAzDCIIgSVIkEnEc9/TQpVKppNPpQCBQKBTOnj3b1tYGJ04Qg8FQX1/f1NSk1WoFQeB5PpvNLi4ujo+PT01NxePxUqlEkmS5XCYIQq/Xp1KpdDqdz+dTqVQymWQYJp1Ox2KxsbGx8fFxeJdwOAw1I5PJSJJcs5xhmEQisbCwUCwWGxsbJRJJLpcbGxsLBoM6nU6lUlEUFQ6HFxYWZmZmRCKRIAj379/v6enRarWJRCIejxMEkU6nC4UCHLCtrq7K5fJwODw3NxcMBhmGcTqddXV1Op3upd5CpVKJx+PDw8MDAwMajcZms4nF4lQqlc1mHzx4MDY2Nj8/TxAEjuM+n89sNms0GqVSubq6OjQ0lMlkisUiTdPBYBDDML/fr9Fo4NTL5/M9fPhwdnY2lUoBAMRisVQqbWhoEAQhFosNDg46HI7e3t5sNuv3+0dGRubn56EYBEFQKpUURdE0nUwmM5lMLpeLx+PwXgsLC0NDQ48ePcrlcnB4QlGUXq+vq6urVCrRaPTBgwejo6MajcbpdMpkskql8lKlUTVbqpzV1dVYLOZyuUwmk1gsfrz7JghCLpdXKpVYLBaPx585BgMAMAyTzWZXVlaKxaJWq316BknTdCgUKhaLJEmaTKbHZQMAkEgkTU1NVquVJEmKonien5ubu3jxotFo/OCDD3bt2pXP5+fn5z/99NPV1dVyufzGG2+o1WqRSHT69OkTJ06Yzeapqalbt27RNN3f33/kyJFgMDg+Pv7ZZ59xHGexWEwm05rlEonE6XRGIpFUKlUul0ulUj6fx3FcJBIVi0WGYTiOS6fTBEE0NzdrNJpcLodhmF6v37Vr17e+9a2lpSWaps+dO2e1WldXV+fm5qampk6ePPnmm29SFHXp0qVEInH9+vWTJ0++rHIgpVJJLBa/++67PT09ZrM5FouNjo7eu3fvjTfe+Nd//Ve5XD41NXXnzp1YLDY3N9fY2AgAqFQq4XB47969Z86cyWQyDx8+PH/+vM/ns9vtGIYFAgEcx3/wgx84nU4AwO3bt/P5fCQSkclkazcVBMHn8/l8PplM9u1vf7ujo6NYLE5MTAwNDXV0dLhcrvfff1+lUgUCgQ8++KCxsbFSqVy/fj0UCvX393d1dclksuvXrycSiYsXL7777rvwwWmaViqV3/zmN9va2sxmM3Q/VlEgL8uWKgc6W8Vi8dMOR5FIpFAo4FQe9gaCIJRKpfn5+Z/+9Kdwlg+vwDAMjuMtLS0NDQ0qleqJW/A8zzCMRCLBcVwul4vFYp7nc7nc3NzcgwcPMplMqVQCAOzevXvPnj2wxT1y5IherzebzQ6HI5/PMwwD7yUIglwuV6vVcrlco9Go1Wqe58Ph8OzsrMfjaWxsdLvdarWaYZihoSF4l8crsUgkgubBjoskyXw+b7VaRSIRHGrK5fJIJMLzfH19PUEQuVwO/komk2m12mw2m8/n4d0BACqVymq1OhyOuro6qVQKq3KhUGAYprp3IRaLFQqFzWaz2WwajQbDsLa2NhzHPR5Pc3MzSZK5XM5qtRYKhXK5DPt2sVhsMBgcDkd9fT3sH2ALCJt5hmEwDDOZTHV1dQRBMAyTz+dNJtMTnpVyuVypVHAc1+l0dXV18GXBHkOhUGi1WpVKpVAodDodRVHpdBqOJ7u7u1taWkiSTKfTDx48WFxcjMVisN2E7geHw2GxWNRqdXWlUQXb45V+GoIg4DoDnJPADyuVysrKytTUFPQFMQwDlwW+973vdXd3u93u57UuFEURBAFXh3ieLxaLc3Nzly5dCgaD8Xg8l8t9+9vfdjgcSqXS5XJZLJZUKkXTtN/vhxWC5/mnvU88z0O3aTAYbGxsLJVKPp8PLlbAZjWXyz1eS2AviuM4TdOZTEYsFmcyGYvFIpFIlpaWUqmUWq2ORCIajcZut2ez2fXLx2QyEQRhtVqVSiVBECaTCY4bqy5wWF8VCgUscJ1Op1AoHA5HsVhcXV0FAESjUYZhHh8PUxTlcDhguy4Wi/V6vd1uhx4zuFBGEEQkEiFJUiwWm83mxsZGiqKSyeQT94WLVMlk0ufzAQAUCsWxY8fEYjFN04+3p5VKpVAoYBimVqsbGhqgKlpaWubn50dGRrLZbLFYhEtegiAoFAqSJKsujSqoFeU8E+hbO3bsmNlsFovFKysrQ0NDXq93165dLpdrHV9NLpeDAySO4yiK0ul0/f39Ho+nUCgsLCxcvXrV7XbDb2YymaWlpZ///OdDQ0MAgLW5E3TlPZNisfib3/zm17/+NWzzaJqOxWL9/f0dHR2PD7Lhwp9erzcajRzHxWKxQCDgcDhUKhWO45VKBXqZYfUtFovrF4VCoeB5XiKRwD75ZUrx2cjlcujTh60Py7JLS0tXr14dHByEzgmapsvl8qFDh5qamuBPRCKRVquFfeDjwHFppVJJJBI/+clPwuEwjuPvvPNOf39/Z2fn49/EMKy5uVkikYTDYTjSAwAcPXr0W9/6lsPheKIdZBgml8vBIS78BBapQqGAa9nwQzhH2qSltnXYUuVotVqlUplMJrPZLMdxj3v3GYbJZDIsy1IUJZfLKYoql8sikUiv13d3d9fV1clksmg0SpJkpVLJ5XKhUEin0z0xWQIAwNUMHMeLxWIqlTIYDHD532KxWCyWSqWiUqmmp6flcjnP87BPu337drFYhH09z/M0TScSiec5Z2DfCOf3cEUcft7d3W21Wh+fd0EfsdFodDqdpVIJ2tPQ0EBRFEVRuVwuHA7DJlOhUDzRMD+NSCSC7gcMe4lAX3/1gmvdciQSWVhYWFhYEIvFLS0tOI5D9+PjTwRXZp525cHe1e12l0qlXC6n1Wqh68Xr9ep0uicqNHSNdnd3cxxHkiTLstBXKQiCyWR6/NFgAUJfBfwEDuPhmt7aN+GbesFNIRvIlirHZrPF4/GBgYH6+vpyuQzHVAAAOKUJhULlclmpVGq1WplM9sQAhqIop9PZ1NS0uLg4NjZWLpfr6+vhhp3HvyaRSCwWC/RBRSIRs9ms1WrXynSt6AVBEASBpum5ublPP/303Llzb7zxRnNzc6VSWVhY+OUvf/n0DAoiFouNRuM777yze/duq9UK6zHP8xiGPXOZz2Aw1NXVBQKBeDxeLpeh6qRSaSqVSqVSYrFYo9HI5fIt8KKuA8/zPp9vYWGBZdn33nvv+PHjYrF4ZmbmwYMH8Xj8Ra4gCAJsm/r7+2GT9Otf/3p+ft5kMhmNxifupdPpjh8/fuLECZ7n8/n8F1988fHHH2u12ic0CWdicrmcJEn4vuD3YV/9+LaSbWFLXxiciEPfv0Qi2bt3r16vFwQhk8lMTEz8/ve/N5vNvb29Wq32eT2vy+U6fPjwJ598Eg6H/X6/y+V6YlglFovlcrnH48nlcp988kkul5PJZBqNBg6Cl5aW7t+/f+PGDYIg9uzZ8/T1Q6EQXGd43CMEwXFcIpHo9XqDwbC8vKxWq81mc6FQWFxcvHr1qtPp3L9/P1xyffxXJEmSJAmVAzfaKZVKt9s9NTUViUQ8Hg9cnawpOI5jGAaWlVardblc638/l8s9evSoUCjwPL97927oJiFJEnancPgAvykIwvDwcDqdVqlU9fX1VqsVAAD3T0D/EPTfQEiSlMvlLMtGo9HJycmOjg6JRDI+Pp5IJAwGg16vVyqV+Xx+04rhr7ClylEqlTabzePxxOPx8fHxQqEA1/iKxWIwGIRDpvb2doVC8URUuDX0en1bWxvczPbo0SOxWAxnzGuNPY7jFEW1tLQUi8Xbt2/7fL6bN2+u7b5ZWVnx+XwGg8FsNqvVaolEolQqzWZzIBAYGBiAjmC4VisIAsMwsFdkWTYQCMzPzzc3NxuNRo/HEwqFHj16VCwWoYt8bGxMLBbDXz1hMNxgWigU4JQG1gaTyTQ1NZXNZo1G4xNNMgAAwzCKoorF4vz8/MLCAsdxm92+YhgGPVrlcnlqagpOqPx+P9zwWqlUnrl0tsbauHd1dTWTycDNU5lMRqfT6XQ6kiQfHz7Ad+31ev1+v16vp2k6Ho+73W6dTieTyeCT5vP52dlZ6H+z2Wx+v//hw4fRaBQqB8Owrq4us9m8vbvatlQ5BEE4nc6vf/3rd+7cuXr16q9+9atwOIxhmMVi2bNnzwcffNDa2mo2m0Ui0fOUIxaL1Wp1Z2fnw4cPP/nkE+iOfHy+CGlsbDQYDK2trZcuXfqv//qvcDgMp+CNjY0HDhz493//9/r6ep1Oh+O42+3eu3fvb3/72/HxcYIgzpw509vba7PZVCoVFDb0+Vy/fj0QCPzDP/yD3W5Xq9W///3vv/jiix/96EcMw9jt9vfff//gwYP19fVPD7qkUqlWq4UNhMvlgnKFjiCRSGQwGJ4eFsKJeDgc/vjjjwEAhw4damho2KhX8ExwHHe5XOFwOJPJ/PznP8/n8x6Pp7u7+/Dhw7Ozs7lcDu7Uft7PoXc7m80ODAx89NFHsVhMEISvf/3rb731ltVqLZfL0WgUfhPDMOgz+OUvfzkxMREMBgVBOHny5D/+4z9CVydsAQOBwG9/+9uTJ0++9957x44du3v37v/+7/+urq5yHFdfX/+1r33ta1/7msFg2MYOB2yxcuCcT6lUtrW1iUSixsbGbDYLGzyn09ne3r422IXTlbNnzwqCYLPZ1pYX4Y7GtrY2uPXD4/E8c/M/nD+IRKLjx49bLJZsNlupVDAMg3sIWltblUolrOUWi+WNN96Qy+XBYBAA0Nra6nQ6d+3apVKpbDabXC5vaWn5+7//e4Zh1Gq10WiUy+VSqfTIkSNWq/Xw4cM8z2u12p6enrq6umduARaJRNCzV6lUdDqdwWAgSdJoNB46dMjj8bjdbqlUCneLd3V16fX6+vp6uKPizTfftFqtLS0tDofDYDDIZDKGYeCEG8fxxsZGrVZbLBbtdvvzSpskSZ1Od+TIkaamJvjI8HOpVAodWcVi0Wg0wh4bDnG/+c1vhsNhmqaNRqPD4bBarfX19XK5XCKReDweaIbJZII7Odxu97lz5ywWi9lsVqlUu3btEovFe/bsgQtTPT09ra2tcF+Fy+U6e/asQqGQyWQymay1tfVv//ZvDx06lE6nAQAtLS2tra0qlUokEsnl8jfeeAOOYBsaGmATs3//friSw3Gc0Whsa2szGo1w8uN2u+GSnVqt3mLfGhBeGADAD3/4wxf/PgLxenD+/HmFQvHjH//48Q/RmVAEohqQchCIakDKQSCqASkHgagGpBwEohqQchCIakDKQSCqASkHgagGpBwEohqQchCIakDKQSCqASkHgagGpBwEohqQchCIakDKQSCqASkHgagGpBwEohqQchCIakDKQSCqASkHgagGpBwEohqQchCIakDKQSCqASkHgagGpBwEohqQchCIakDKQSCqASkHgagGpBwEohqqzAIiCAJM4Lw1yRlh9HgAAIZh699x7ZsAgKezgzwBzAnzvGuuXeqvXmdD+KvPKPwl2f3jH2KPsc5l4V9f6mXBe63dDt7ipYrixd/ay15wa97I+ry0cgRBKJVKi4uLt2/f7ujo8Hg8MFPNZhi3xsTEhN/vh0nY6+vr1/lmIBAYHh7O5/NqtfrQoUPrpFXJ5/PDw8OCINhsNovFspZeBlIoFBKJxODgoEgkOnz4sFKpfGZ6nA0kGo0ODQ3BPKRNTU0wWdUa2WzW5/N99tlnPp8Ppp2B2O329vb2EydOmEymZ6Y193q9i4uLdrvdarWazeYXsQRmOx4cHLx+/XoikaBpGgDQ09OzZ8+evr6+52VQfYJSqRQIBG7fvu1yuTo7O9cSTlZNJpNZXV0dHBx0uVx79+7d+mTUT1BNjWdZNhwO3717VyaTOZ3OFyzKVwGm7zQajUql8nnKEQShXC6HQqGhoaFsNmuxWNra2qRS6VrWqieAyXQFQSBJEibNfuKv6XR6fHycJMm+vj6ZTLbZysnlctPT01KptFKpPJ2as1QqhcPhgYGBUCgkEonWkhMXCgWWZZ1OJ0EQMO3mE0Sj0enpaQCAQqF4EeXA9IOTk5NjY2MweyHMn7ewsCCRSCQSSV1dHUw+tX43wrJsPB5/+PBhpVKpq6t7onirAJbA4OAgwzDd3d0wU/crXvPFEZ5K9ridKZE3Fp7nk8lkNBpNpVIwV3g6ndZqtc9Tzo4Dx3GFQnHq1Kk333zTZDLBVL43btyYmZkZGhoiSfKZynlZ4vH4o0ePfvvb37rd7h/84AcGgwEW4N27d8fHxy9cuHDw4MHTp0+LxeItzqJea7yqcgRBYFl2cXFxZmZGKpXGYrHJyUlBEDQaTUdHR3t7e11dXS6X8/v9k5OTOp2uVCqNjIyIRCKr1Xrw4EGn0ymXyxOJRCgU8vv9TU1NTU1NBEEkEomVlRWYCFIul9++ffvWrVsymSwSiYjFYrfb/XRHB5MY0zTtcDgEQZBKpbOzsxKJBKZKfkU4jovH46Ojo+VyGcfxyclJmO7c4/HAx2QYJhaL+f3+QqEgFotnZ2czmQxMtb1r1y6KoiKRyPT0tFwu1+v1brcbx/FcLjcyMgJzpxYKhdHR0c8//5zjOJfLBZPIOhyOx22A0wy5XG40GmHmegBAY2MjLN5MJsOy7OPJhl8WQRA4jvP5fIuLi62trZ2dnc3NzTCpOgCgq6sLw7B79+7FYrFgMKjX61Op1OjoqN1ut9vter0eAJDNZh89ekQQhMfj8Xq99+7dg7mQc7lcf38/QRA+n0+j0cDePpFI4Di+f//+1tZWu92ey+VWV1cnJydbW1ubm5tJkszn87BIKYqCaZVv3LgxODiYTCYxDDty5IjL5aIo6lVfbbVsjHIWFhauXLmiUqnC4fCDBw8qlYpGo/H7/TiOWyyWdDo9OTn50UcfNTU1sSx78+ZNmNIVJpGsq6tLJBJer3dgYADDsPr6ehzHk8nkxMRELBYTiUQul2thYWFqaoogCIPB0NvbazKZnlAONCMcDpdKpaamJhzHi8Xi4uKiyWTyeDyv7sngeT6VSg0MDKTTaZIkHzx4EAgEGIbp6+vLZrM2m41hGJjePZ1OWyyWoaGhSCRitVp5njebzSaTKRKJDAwMmEympqYmm80mFouz2ey9e/dIksQwrFAoLC0tzczMFIvFVCrV09PjcrmeUM4zUSgUarUawzCO4ziOe5Un5TiOpumVlZVwOHzs2DGYtnXtr3V1dQCAyclJKFSKolZXVz/99NM9e/bAtMcAgHQ6ffv2bZIk9Xr94uLi3NzcyspKoVCQSqVtbW3FYvHzzz83m80sy3q93kAgwPM8TdM4jhsMhmw2Oz8/f+nSJUEQnE6nSCTK5/PLy8t37txRKpUOh2N5eXl6enp5eZllWb1e397evk6O1C1gw0ZrgiDk8/mOjo7vfOc70Wh0fn7+3r17s7OzsD2GubxNJlNXV9e5c+fC4fDS0tLc3JxEIrHb7evkPdZqtXv37s1kMlqtVqvV7tmzZ+/evU/MngEAPM+XSqVIJMIwTFtbm1wuj8fjXq83m80Wi8W1rO6vDuxzvve97ykUilAo9ODBg7GxsX379snl8nK5PDo6CgDYs2fPoUOHeJ4fHBzMZDJ37tw5duzYOtfEcbylpUWpVMbjcZFI5Ha7jx8//vRU55mEQqFIJGKz2cxm8yuOoCqVSiqVymazHMfpdLon2iaCICQSiVqtzuVys7OzNpvtedfBMEwsFu/bt0+r1RYKhdbW1qNHjzY3N8/MzAiC4PP5LBbLP/3TP3EcFwqFhoeHJyYmGhoaGIZ53gVh5t2DBw9KpVKZTNbe3v7WW2/V1dVtY4cDNlA5MMV0fX39gQMH4vG4VCp99OgRwzBr+dlhBubW1tY9e/ZEo1G5XH7r1q1wOJzNZtcpNdiAWa1Wl8tlNBqdTuczR1/lcjmbzRYKBYlEYjabFQqFIAgURZVKpWQyaTKZNko58PpdXV1mszkSiSwvLwcCgXK5TFEUrDEqlaq1tRV2dBzHzc7Ozs3N9fT0rPOMGIYplUqO4+x2u1QqdbvdZrMZDsYeB7YOY2NjpVJJrVbDQVQymRSLxX19fVar9RV9tYIgVCoVhmGg1+QJjwh8Oq1WWyqVcrkcy7LrPA6GYTqdzmazGQwGh8NRX1+vVqvhBWEH0tXVRVFUIBDw+XzFYnFlZWUdPxNMaQ4vZTQabTZbfX29QqHYeb61Z19IJLLb7TabjSRJjUZjNpstFsta50CSpEqlamlpaWlpIUnSZDKVSqU7d+7k8/lkMlmpVF7x7jRNJ5NJmqYpioJ+J4IgpFJpuVyORCIajWaj/ARarbahoUGtVsNHs1gsNE3DVygSierq6qxWa0dHh0ql4nm+s7MzFAr5fL71W4cXhOf5YrE4Ojr68ccfr7m2Dh48ePLkyfr6eqPRuLZus0mIxWKNRpPJZEqlUnVXwDCsqamps7NTrVZLpVKO4+rr63O53MrKyvqLDTXIhikHx3G1Wv0856NIJFIoFAqFQiqVbsbbTafTc3NzN27cCIfDFy9eJAiCpulgMNjb2ysWix0OBxyIvzpSqVSv1z9zaQLHcZVKBXsDHMfXGYJWB/StffWrX+3u7tZqtXCswnFcocZmPYgAAB/uSURBVFA4f/58b2/vkSNHtn2VY31g76pWq2thKfMV2cjRGmzvX0QYHMfBgQHHcc/8AsMwNE0/76+Ps+YbmJmZIQhCoVCwLMtxHIZhFouF4zi/359KpfR6/YYMi8VisUwme2btfGI5n+d5hmEqlQrLsk+rCJr9Uo03juMkSTY1NZ05c8ZqtcLhXCAQGBkZuXXrllqt7uvrE4lEVSsHx3GJRALfIE3T5XL58REjz/OVSiWTyQAAdDrd020HfKeVSmX9ha+16gFLoFwuP683Zln2BevAtrBF6zksyxYKhXw+T9O0Wq2uVCr5fD6fzz8914fQNB2LxZ5efnoajuOgG83r9Z49e7anp6ehoQHDMHjHa9euDQ8Ph0Ihg8HwgivoVcPzfCaTga4CiqJgb1AoFGiaflo5sFqkUqlXXCJUq9UmkwleZJ3yfBFIkoSOAYIgkslkNpt9fErJcVwul/P5fGq1uqWl5elpWKVSyeVyhUJhHekKgpDL5bLZLM/zHMeVy+VMJvO8sTpN04lE4tVH8pvEFimnUqlks9lwOByJRAwGQzqdDofDcPFeq9VWKhWapgOBQCQSSafTcF3I5/MZDIa/emWGYeLxeCaT4TjOYrFAFwL00spkMpVKhWHYmvdpU5+RYZjl5WWapuGiU7lcXlxc5DjO6XSq1Wq4hyUajcpkslKpVKlUQqHQ+k6qFyGfz6dSqWKxCACQSqWvMlSDfRpcJBgYGMhkMgqFQqlUwr56bm5uZGQkk8nY7Xa4ogB/FY1GA4FAXV1dJpMJBAKJRGL9PiccDuv1+u7u7nK5nEwmE4kE9BnASWksFotEIolEQiQSJRKJxcXFQqFQ9RNtKlu3h4DjuEgkMjc3B92RKysrRqPR5XKp1Wq4egir2uDgoF6vDwQC+Xxeo9HA3xIEIQhCOBw2mUzpdFoul6+9HlgFC4WCQqGATeba7kaSJBUKhVwuD4VCJpOppaXlVRYK/yqCIBQKBZ7nZ2dn0+l0qVRaWFggSbK+vl6v12cyGb1e7/P5Zmdn7XY7hmHLy8twGAl/DituNpsNBALxeFwikazVzrXrcxwXi8Wmp6djsRj0eUQiEb/fL5PJtFqtXC5/FeVAF5bb7c5ms5OTk9PT00ajUaVSQeVMTEzADsdut5tMJgCARCIxGo2JRGJsbEypVBaLxVAoRNP02qZMHMcJgoCKIkmSZVlBELLZ7PLy8ujoKMuyoVCIYRidTud0OgEAJEmKRKJAIDA4OOh2u5eXl9Pp9NpYDl6N5/l0Or2ysgLbo22cL22RcqRSqdVqzWazn3766dTUlEqlam5ufvvtt3ft2kWSpM1ma29v7+vrGxoaunz5cktLi8ViaW9vX6vlCoWC47gLFy7Mz89TFNXV1QVfHgCApumFhQWGYRobG/V6vUQigZ/jOA53T9rt9unpaYqi9u3bJ5VKX3Hf4TqIxWKPxxOPx7/44ou5uTmapltaWo4fP3706FGtViuTyfr7+2Ox2MDAwJ///Of29vaGhobW1tbGxkb4c5IkDQbDnTt3/H6/IAhHjx5tb29//Pocx+Xz+bGxsUuXLonFYlhpNBoNnPl0d3fL5fJXr0lwrVmhUNy9e/e///u/4/E47C27u7v3799/+PBhp9MJmy2Hw3Hq1KmPP/744sWL58+f37VrF9zZCds7giAoioKLE9PT09/4xjfWdoQsLy9fuHChUCjo9fr33nvv4MGDcN9QuVz+6le/eu3atUuXLrlcrsbGRrfbHQwGoWEURUkkknK5/PDhw2Aw+MEHH3R2dj7RuGwl1SiHJEmXy3X69Onm5mboSqqvr//KV75SX18PV51JkrRYLP39/RaLBXYpcB2trq5OrVYbjUa1Wl1XV+fxeIxGI5yY2u32/v5+g8GwurpqtVrhxl6GYfR6PUEQNptt3759LMtaLBaj0fj4XF8qlTY1NVmtVoqi4NXW/oRhmN1u37t3r8FggEs6L16xJBKJwWA4cOAA9DpAV/v+/fulUqnFYqEoCprd3d3tcDhsNlulUiEIQqvVKhQKj8djMplYlm1ubu7s7DSbzQRBiEQip9N56NAhlUoVCoVcLpfL5eru7oarVVKpVCwWt7e35/P5UCjU2Nj4xPxHJpO53e633norEAhks9m1z2FJdnd3W63WDfGqwdlOW1sbdGzAzhMA0NbWtmvXLriQsnbr5ubmI0eOaLXaVCrV2NjY0tLidrt1Op1Op5PL5SaT6ejRo8FgkGVZo9FYqVQwDDOZTHCXMMuyWq12//79a2uaFovl0KFDBEHAiuR2u91udyqVgo5EDMOsVuuJEycymYxEItFqtdvrRcReZBb+f7+KYT/84Q//8z//86VuwDBMOBy+c+fOhQsXPvzww8OHDysUilpwSiaTyQsXLgiC0NbW1tzc/CJzqnUIBAJwA5HNZvvWt75VO97hGzduPHz4sK2trbW1tampaVtsgGusd+7cOX/+/KFDh3p7e+HOtG0xpgo++uij73znO//xH//xz//8z2sfbn8NRiB2Ips+z8FxXCqVOp3Offv2WSyW2tmdDv1IgiBsyFKPVCo1mUxwl+Sm+iFeFqPR2NLSYrVaX8Vh/ergOG40Gnt7e10ul0qlqoVBxyuy6cohCEKv1+/bt2/37t1wplEjtUoulx85cgQAsCEm6XQ6jUbT1tYGPVQbYeDGADftb2+xwz1vbW1tLS0t+F/YLmM2iq14x7Ay1VR9An+xagOvBjfLbdQFN4rasap2LNkQdrz0EYhtASkHgagGpBwEohqQchCIakDKQSCqASkHgagGpBwEohqQchCIakDKQSCqASkHgaiGl95+wrLszMyM1+v1er0sy6pUqra2NplMVqlUpqenk8kkAMDj8cCzSktLSz6fDwBgtVo9Hg8AIJVKeb3eUqkkk8k8Ho9areZ53uv1RiIRAEBjYyOM0Le6ujo7OwsAMBgMbW1tMOLj9PR0Pp+HO6DgUcrZ2dnV1VUAgNvtbmhoAABEIhGv18vzvEaj8Xg8Uqm0VCp5vd5UKoVhmMfjsVgsAIDFxUW/3w8AsNlsra2tAIBkMjk9PV2pVOABG6VSCUNRxmIxAEBzczOMuLmysjI/Pw8AgNFDCYLIZrPT09PFYhEGcYUnlLxebygUAgDU19fD6JihUMjr9QIAdDqdx+OhKKpYLHq93kwmA8PJwrN6CwsLy8vLAACHw9Hc3AwAiMfj09PTLMsqlUoYhJFhmOnp6UQiAQBobW2F57H9fv/i4iIAwGKxeDweDMPS6bTX66VpWiqVwpQTgiB4vd5wOPx4UQeDwZmZGQCAXq9va2sTi8X5fN7r9eZyOXhWD56/mJubCwQCAAB45gwAEI1GvV4vx3FqtRoGvy+Xy9PT06lUCgDQ1tYGi9rn8y0tLT1R1F6vF0YI8Xg8KpWK4ziv1xuNRgEATU1N8IhoIBCYm5sDf9m0ynFcJpNZWlqiaVoikcDjd6lUyu/3w3cEd+ilUqlgMAhrncFg6Ovrg4GLl5aW8vk8juN79uzxeDwwjOjLVv7HqUY5Pp/vxo0bly9fZhjGYrGcPn1ar9cXCoXLly/D6njq1Kldu3YBAO7du3fnzh0AQEdHBwxZuLy8fOXKlVwup9FoTp8+bbfbOY67fPkyfHlHjhzZu3cvAGBkZOTatWvwBReLRYlEEo1Gr1y5EovFJBLJmTNnoE4+//xzGFZz7969cPvm9PT0lStXeJ632+1nzpxRq9XZbPby5cuBQADDsNOnT8ODlgMDA/fv3wcAdHV1wZNbPp/vypUrxWJRr9efOXPGbDaXy+UrV65AnRw7dqyvrw8AMDQ0dOPGDQBAS0sLDEweCoUuX76cSqXkcvmZM2fcbjcA4NNPP52YmAAAHDx48ODBgwCAiYmJTz/9FADgcrnOnDkD3/rly5dhboLTp0/DWnXjxo2hoSEAQG9vb39/PwBgfn7+ypUr5XLZbDafPn3aYDAUi8UrV67AynHixInu7m4AwP379wcGBgAAbW1t5XIZw7BAIHD58uVsNqtWq0+fPu1wOHiev3LlCkxtcPjw4X379gEAYDxrAEB9ff2ZM2dgEIgrV65Eo1GKos6cOQN1cu3atZGREQDAnj17jh49CgCYmZm5fPkyx3E2m+306dNarTaXy125cgUq//Tp0x0dHQCAO3fu3Lt3DwDQ2dn51a9+FQDg9/svX75cKBR0Ot3p06etVivDMJcvX4Y6+cpXvrJ7924AwPDw8PXr12EdOHXqVKVSWV1dvXfvHgyQwDCMyWRaXl6+f/8+fEcnTpzged7v94+Pj9+9exf+kCRJmqZhxNlYLEYQBMMwarXaZrO9onJe+mTbj370o3g8nkgk4vE4z/MURRkMBrFYDGOWw5O3BoMB7mnPZDKwBVIoFLDpKpVK8XicZVmxWGwwGCiKEgQhHo/DQA1arRYGRsvlcrBNlclkBoMBx/FKpRKPx+HRy7UA+4lEIpfLAQDUajVs7AuFQjweFwQBHuoUiUQwHQWUx5ph6XQaZqFRKpWw+4LZLziOg6eaSZLkeT4ej8PgGGvRYrPZLOxX5XK5wWDAMKxcLsfjcYZhCIIwGo3wOPeaYWuni/P5PAziLpVKDQYDfIXxeBzWcoPBAKPJpFIpGJlJpVLB0DPFYvGJouZ5PhaLwaLW6/Xw9Og6RQ0DZELD4vE4PNX8IkUNIz7DE8swGs4zixqexhWJRM+sA+sU9TPrwNNFLZPJ9Ho9TNyUTqfhE1ksFpIk4SfwHen1er1eT9N0LpeDd5TJZFarFUZHSqfT8FAqjDz6Uicdnnmy7f/mwXoRAAA//OEPX/z7CMTrwfnz5+Vy+Y9//OPHP0QeAgSiGpByEIhqQMpBIKoBKQeBqAakHASiGpByEIhqQMpBIKoBKQeBqAakHASiGpByEIhqQMpBIKoBKQeBqIZaiVgL0yEODg6Ojo6m02mr1bpr166Ojo61DFMbBUwEC4+pdHV1GY3GrUlHEQwGJyYmJiYm4vG4VqvdvXt3T0+PUqlcPzdgFSSTSXgeRqFQ1NXVvfrTwYSeDx8+HBsbC4VCer2+paWlr6/PYrG8TtFuX5aaUA7MTTszMwPP8yQSCYfDkc1mYa5CmUy2gdHEeZ4vlUozMzPj4+MWi0Wj0Wy2cniehzmAb926NTw8HI1G9Xo9TGPa2tq64Sn7MpmM1+sVBMFkMtnt9ld8OkEQ8vl8MBgcGhq6efNmMBg0Go3RaBRmQdTr9TUSX3/rqQnllEqlxcXFjz76yGq1fv/739fr9X6//9GjRxMTEziOd3V1bXjDvJWUy+XJycmpqalMJvPhhx9ardZ4PO71ei9cuPB3f/d3LS0t8KxRbcKy7PLy8p///GeRSHTu3LmWlpbV1dWpqamRkRGWZY8dO/al7Xa2f54jCEKpVMpkMolEQq1Wd3d39/X1tbS06HS6SCSytLRUqVSezoq+g4CpZAuFAjyA3dvb29XVJZFIVldXo9EoPABXmwiCwLJsJpPx+/1SqbSjo6Onp6e9vd1ut4fD4YWFhWKxyHHcdpu5PWy/cgAAMMu5RCLR6XTwvKdOp6uvr8/lcqurq6VSaUcrh+O4dDqNYVhTUxNMtWsymRQKBc/ziUTi8aSfNQjDMOVyuVQqqVQqmDhMp9PV1dXlcrlgMJjP59dyR3/ZqAnl0DQNlUNRFMy6DMVTLpfT6XS5XN65DRucXmezWY7j4MlhmDRbpVKpVKpCoQDPNtcmgiDQNA0TtVMUJZPJoPEKhQKeBs/lcl9a5Wz/PEcQhGKxWCgUcBwXiURw3CwSiaRSKcuypVKJZVnhhYMl1Bocx8GxKI7jMplMJBLBHFUkSVIUValUKpXKdtv4XOBAulgswpgEMFMlQRCwdeN5vlKp7NxG7RXZfuUAAHK5XDab3bnyWAeonFQq9eqpSLce2Ofk8/lisfil7VueR00oRy6XKxSK19K/ieM4RVEqlWon+qAwDIODNKlUWmvJKredmigOqBxBEHieh84AuF6J4zhJkrWTlLcKCIKgKEqj0cAJD8dx8DFZlmUYpgbTpz4OhmFSqVQul1MUhWHYmvHwH3B0/Rrkyq2O7X9sDMMkEgmMnVUqlRiGgYuVyWRSIpGo1WqJRLJzXw9BEBKJBEb3gtHV4PQgm81ms1nYZGy3jc8FKkcikWAYBic8PM8zDJPP52HQs83YA7FTqIkaKZVK16LOJZPJcrkMo54qFAqbzUZR1E4c6kDglBoGK/T5fJlMBjYK+XxeEIS1qHw1i1gshj7PfD4fjUYZhkmn04FAQC6Xm81mhULxpVXO9g8VYJ8jl8vFYnEqlVpcXKRpemVlJRgMtre3u1yuHd3nAABgiM1gMLiwsLCyskIQRDAYLBaLarXaaDTWuHJEIhGMZprL5RYXF5VK5fLyst/v1+v1brdbLpfX8mhzU6mJx5ZIJA0NDe+///7Dhw9/8pOf5HI5vV7f3Nzc2dnZ2tq6czscCEVRHR0dcCfBL3/5S7gfr6en591333U6nbXsc8MwTCQSuVyuc+fO3bx58w9/+MPPfvYzlUrlcrn279/f2dm501/Nq1ATyiEIQq/X9/X1FQqFbDabSCScTmdfX19DQwOMrbyjgU/X2NiYTqd5noc7Pjs6Orq6ujQaTY1XPhzHNRpNW1tbLBbLZrMrKytmsxm2aGazeed6bl6dmlAOAICiKJPJ9Dd/8zfnzp0TBAHDMBzHd/Qg7QlcLpfD4Xj77bcff7odUfNEIpFCoTh9+vSpU6d2nPGbR60oB/xlMl3jbXDV7PSn29HGbwY1pJytAY7djUYjnOC+Tt0aRCKRGI1GQRA0Gs3r93S1w5dOOQRByOXy/fv39/b2Qofedlu0wRgMBpjrCi7Cbrc5ry1fOuVgGIZhWC2vP74iYrH49WsOahDUmyMQ1YCUg0BUQ62M1liWhZlQfT5foVDQarVut9vlcsFclhsI3G25urqaSqXcbrdard7KVXCaphOJxPLyssVicTgcm7FjMpfLwVzNEonEZDJt4NOVy+VoNFooFDiOczqdNb77YbOpFeWUy+VIJPLxxx+fP39+ZWWls7MTru1suHI4jisUCvfv3x8fH3///fdbWlq2TDmCIKTT6bGxsT/84Q/Hjh07e/asQqHYcOXE4/F79+7B2Dcb2y7k8/nR0VG/318ul9955x2knO0Hxr7585//LJFIvv/970ul0kwmE4vFxsfHAQBNTU2vweYomqZTqdTFixcHBwdhLuvttujl8Pl8g4ODv/nNb6RSaW9v73abs/1s/zwHHtmNRCJjY2NKpfLUqVMffPDBgQMHCILw+/0LCwsMw+zo46I8z+fz+aWlpTt37szMzMAdxzvoiYrFot/vn5qampiYgEF8ttuimqAm2nIY+0Yqler1epPJBP/R2Ni4vLwcCARKpZJYLN653Q7DMIFA4Pr167/73e8OHz78la98ZWRkZGsCi24IwWDw6tWrwWCQpumzZ89+yTfdrFET1XEtapRUKpVKpXCx0mg0zs7OJhKJcrksl8u328bqgTs+e3t7SZK02WzZbHZycnK7jXoJtFptT09Pc3NzsVjMZrOpVGrHDTU3g+1XDox9Q9O0WCwmSRJGhyFJUqVSVSqVfD6/0yMVws0+RqPxwIEDoVBoZGRkZ22K0ev1cFNCMpm8c+dOJpPZbotqgpp4hTD2zY6WB+LLRk0oBwayQANoxA6iJpSjVCpVKhVUzprTCf4DyQlRm2y/cmAcAoqiYPxi6LGlaRrGvtFoNBKJBJ0MQdQa268cAMBa1KhcLgdDFcOA3zB4OYzFvN02IhD/HzVRI2HUKNjPRKPRYrEYj8cXFxdVKpXD4UB9DqIG2X6vNAzB6nK5zpw5EwgEfvGLX/A8j+O4QqHweDxbua8MgXhxaqLPIUnSbrefOHFCq9XOzc0NDAyEw+GGhobW1lan0/k6dThisVipVNrtdhj1Zmf5PwiCUKlUer0epjPZbnO2mVppzmHsm/fee6+/vx/uxNFoNBu+UXrbUavVXV1dLpdLqVTCdDTbbdFLIJfLu7u729raBEF4/V7Ny1IryoEx/61Wq9Vq3W5bNhF41HmH7s8XiURIMGvUinK2EgzDYLjk12kcuAZMESUIApofbipfusJdi33T3t4Ow71vt0UbjNFohNvMKIp6/Z6udvjSKQfGp3Q4HNttyGYhk8lkMtl2W/H6s5NmqAhE7YCUg0BUQ82N1liWhTH/YSDwDT87CfP1ZTIZmqa1Wu2WJecpFovpdBomqSdJUq/Xa7VamOR5Y29ULpfhgWdYgBt4fZZlC4VCuVyGoXe/5JOomlNOLpe7efNmsVg0GAw9PT0Wi2Vjr89xXLFYvH///tzc3KlTp+rq6qRS6cbe4pksLy9/8cUXn3322crKitVqfeedd06fPm00Gje8/sVisdHRUUEQ9Hp9T0/PBj5doVAYGRkJBoOVSqW/v9/lcm3UlXcitaUcv98/MjJy8eJFpVL5xhtvbMapXUEQOI7LZDKRSKRUKm3BcTqGYYLB4Ozs7NLSUl1dndvtxnE8EoncuHHjyJEjVqt1Y4PZMgyTyWQEQaAoagOfLhwOT05O/vGPf+R5vr6+vlKpbNSVdyg1Mc8RBIFl2Xw+PzU1de3atVu3bi0uLm63URtGuVz2er3z8/OlUum99977t3/7t29+85uCIFy9ehXGJ9luA/8KsJeen58fGBi4fPny9PT0dltUE9REn8NxnN/vv379ejKZVKlU/f39JpNpu43aMHieT6fTGIa1tLTodDq5XG6xWBQKBcuy8Xg8k8kolcrttnE9gsHg/fv3/X5/oVB48803JRLJdltUE9SEcsBfsp/b7XaHw6FWq1+baPwwDTocPjkcDujzUCqVSqWSJMlMJpPNZrfbxr8CQRAkSZrNZo1Gg2EYTOm+3UZtPzWhHJFI5Ha74epkPB6/ePHiaxMOj+f5UqkE5QG3GOM4DiP7qFSqQqGQz+e328a/gtVqfeuttwRBSCaT9+/fp2kaKQfUiHLAX1KpAQB23N779WFZtlQqpVIpsVgMU/es/QnDsB0R6RPmaQQAoCgrj1MrynmNgdkTUJ17zUDK2Vzg/A2l7Hz9QK9zc4HKgT6PdDoN45WyLFssFguFAowGvN02IqoBKWdzgf4AtVoNVz9pmuY4jqbpbDZbKBSgk227bURUA1LOpkMQhEaj4Xl+dnY2mUwWCoVIJJLP50UikV6vR6csdyhonrPpiMXiurq6TCazurp669at4eFh2PP09PTYbDZ0lmaHgpSz6VAU1dHRwTDM3NzcL37xi4WFBZfL9e1vf/vdd9+1WCxf8h3HO5eaU45SqTx69CjLslKpVKfTbbc5G4bL5Xr33Xf7+vpyuZxcLm9sbDQajTso/xQAQC6X9/T0NDU18TxvNpu325xtpuaUI5FImpubt9uKjUen0+l0uu7u7u02pHooinqNT6G/LMhDgEBUQ831OZsNQRBSqXTXrl1ms3nDz8bUAlqttqurCwAgk8lev6erHb50ysFxXCKRdHR0dHR0bLctm4JGo9FoNNttxesPGq0hENWAlINAVANSDgJRDUg5CEQ11JyHoFKpRKNRlmUpioLx0Db2+jBaSDwez+VyFotFLpdvZVz2crmczWYjkYhOpzMajZtxVoym6VQqBQAgSVKr1W7g0zEMk0qlSqUSx3Fms/lLvm+o5vqcXC5348aNq1evPnjwIJFIbPj14Q7/e/fu/e53v/P7/eVyecNvsQ7pdHpsbOxnP/vZvXv3isUix3EbfotYLHb37t27d+9OTk5u7NPl8/nR0dHPP//8ypUrkUhkA6+8E6mtPmd+fv7hw4d//OMfdTpdf3//JgVD43m+XC7DSBRbdp4ZRiP4/PPPBwcHV1ZWurq6NunWHMfBMJyVSmUDbxEIBEZGRn7/+98TBNHW1rYZmt9Z1ESfIwhCqVSKRCKTk5MPHjyYmpqKRqPbbdSGIQhCuVwOh8Ojo6MPHz6cnJwsFApbECFxoyiXy/F4fGZmZmhoaHh4eHV1dbstqglqos9hWdbv91++fDmfz8N4awaDYbuN2jAYhgkEArdu3frTn/7U0dFx9OjR6enpHbS6HwqFbt68ubKyUigUzp49u4Ms31RqQjk4jsvlcrfbjWEYz/M+n+91yqaG47hUKnU6nfv27WtqaiqXyz6fbwcF9JBKpTabTalUlkol6OFAUaNAjSiHIAiHwwH34cZisWQyWftRyF4ckUhks9lsNtuJEydCodDIyMjOiuZhNpvhmYJkMnnnzp1CoYCUA2pknoNA7DiQchCIakDKQSCqASkHgagGpBwEohqQchCIakDKQSCqoSbWcx4HnnbmOA6mmtluczYYGCxXqVRKJJIdtBgKwTCMJEmpVIrj+Ou0VF0dNaccGG8NKker1W63ORuMRqPp6uoym806nU4mk+2s+qdQKHp6elpbW1G8NVCDyiFJ0ul0brcVmwVFUUaj0Wg0brch1SAWi1+n/K2vyOs2HEIgtoaa63M2G4IgZDLZnj17GhoanE7nzopP+yIYDIa9e/cCAKRS6ev3dLXDl045OI5TFNXU1LTdhmwWKCfP1oBGawhENSDlIBDVgJSDQFQDUg4CUQ1IOQhENSDlIBDVgJSDQFQDUg4CUQ1IOQhENSDlIBDVgJSDQFQDUg4CUQ1IOQhENSDlIBDVgJSDQFQDUg4CUQ1IOQhENSDlIBDVgJSDQFQDUg4CUQ1IOQhENSDlIBDVgJSDQFQDUg4CUQ1IOQhENSDlIBDVgJSDQFQDUg4CUQ1IOQhENbxcLgOapuPx+CaZgkDUJrlcThCEJz58OeVcuXIlEAhsnEkIxA4gFAqVy+UnPnwJ5Xz961/fUHsQiJ1BQ0NDQ0PDEzmXsKe7oedRLBY3wSoEYmdAkqRI9P96mpdQDgKBWAP51hCIakDKQSCqASkHgaiG/wPFKh6genZ2aQAAAABJRU5ErkJggg==;" vertex="1" parent="1">
                    <mxGeometry x="390" y="430" width="179.59" height="160" as="geometry"/>
                </mxCell>
                <mxCell id="38" style="edgeStyle=none;html=1;exitX=1;exitY=0.5;exitDx=0;exitDy=0;endArrow=none;endFill=0;fillColor=#f8cecc;strokeColor=#b85450;entryX=0.7;entryY=0;entryDx=0;entryDy=0;entryPerimeter=0;" edge="1" parent="1">
                    <mxGeometry relative="1" as="geometry">
                        <mxPoint x="436" y="245" as="targetPoint"/>
                        <Array as="points">
                            <mxPoint x="170" y="245"/>
                        </Array>
                        <mxPoint x="145" y="245" as="sourcePoint"/>
                    </mxGeometry>
                </mxCell>
                <mxCell id="39" style="edgeStyle=orthogonalEdgeStyle;rounded=0;orthogonalLoop=1;jettySize=auto;html=1;endArrow=none;endFill=0;" edge="1" parent="1">
                    <mxGeometry relative="1" as="geometry">
                        <mxPoint x="528" y="414" as="targetPoint"/>
                        <mxPoint x="490" y="230" as="sourcePoint"/>
                    </mxGeometry>
                </mxCell>
                <mxCell id="40" style="html=1;exitX=0.7;exitY=1;exitDx=0;exitDy=0;exitPerimeter=0;endArrow=none;endFill=0;" edge="1" parent="1">
                    <mxGeometry relative="1" as="geometry">
                        <mxPoint x="528" y="415" as="targetPoint"/>
                        <mxPoint x="436" y="414.5" as="sourcePoint"/>
                    </mxGeometry>
                </mxCell>
                <mxCell id="41" value="Switch&lt;br&gt;" style="text;html=1;resizable=0;autosize=1;align=center;verticalAlign=middle;points=[];fillColor=none;strokeColor=none;rounded=0;" vertex="1" parent="1">
                    <mxGeometry x="227.5" y="318" width="50" height="20" as="geometry"/>
                </mxCell>
                <mxCell id="44" value="&lt;font style=&quot;font-size: 20px&quot;&gt;OR Gate with transistor&lt;br&gt;&lt;/font&gt;" style="text;html=1;resizable=0;autosize=1;align=center;verticalAlign=middle;points=[];fillColor=none;strokeColor=none;rounded=0;" vertex="1" parent="1">
                    <mxGeometry x="107.5" y="520" width="230" height="20" as="geometry"/>
                </mxCell>
            </root>
        </mxGraphModel>
    </diagram>
</mxfile>